Coordinates
version=1
nRows=17
nColumns=36
inDegrees=yes

Units are S.I. units (second, meters, Newtons, ...)
If the header above contains a line with 'inDegrees', this indicates whether rotational values are in degrees (yes) or radians (no).

endheader
time	pelvis_tilt	pelvis_list	pelvis_rotation	pelvis_tx	pelvis_ty	pelvis_tz	hip_flexion_r	hip_adduction_r	hip_rotation_r	knee_angle_r	knee_angle_r_beta	ankle_angle_r	subtalar_angle_r	mtp_angle_r	hip_flexion_l	hip_adduction_l	hip_rotation_l	knee_angle_l	knee_angle_l_beta	ankle_angle_l	subtalar_angle_l	mtp_angle_l	lumbar_extension	lumbar_bending	lumbar_rotation	arm_flex_r	arm_add_r	arm_rot_r	elbow_flex_r	pro_sup_r	arm_flex_l	arm_add_l	arm_rot_l	elbow_flex_l	pro_sup_l
     29.65000000	      0.84116738	      6.33166975	   -170.35475199	      0.61148278	      1.07345011	      0.85965440	     21.63891044	      0.80011789	     -1.79281031	     23.61225177	      0.41211154	     -1.78317258	     -0.58773675	     -7.49999987	     25.73184870	    -11.74140569	      0.12816730	     27.16956381	      0.47419834	      1.17253791	      1.58986577	     -7.49999987	    -18.09365997	      7.76510708	      1.00856770	     14.71658958	     -4.20373867	     -1.28208555	     18.65456782	     82.79249654	     20.07817091	     -0.84947996	      2.12406278	     18.63785594	     85.61128787
     29.66666670	      1.31367728	      6.20169574	   -170.31724446	      0.61003786	      1.07142509	      0.85791495	     20.97699866	      0.82203524	     -0.32017581	     22.42927647	      0.39146472	     -1.47408683	     -0.07328746	     -7.49999987	     25.78579451	    -11.82385622	      1.61947891	     26.95529261	      0.47045861	      1.95987358	      2.06954292	     -7.49999987	    -17.95802692	      7.36457436	      1.06268556	     14.74255724	     -3.73083144	     -1.22529247	     18.66320384	     82.82502469	     20.05694593	     -0.59935776	      2.19182660	     18.60041896	     85.60471760
     29.68333330	      0.75780064	      6.25242539	   -170.02748172	      0.60826283	      1.06952139	      0.85605814	     19.31991958	      1.12787816	      0.26807761	     21.50234940	      0.37528679	     -1.17540749	      0.57541905	     -7.49999987	     25.21427121	    -12.44037614	      2.86187499	     27.63918421	      0.48239477	      3.82968956	      3.38793660	     -7.49999987	    -18.86242650	      7.39138519	      1.12962649	     15.07422607	     -3.29337253	     -1.16233116	     18.35544850	     83.12288892	     20.34774987	     -0.47538925	      2.90234623	     17.96142694	     85.37170110
     29.70000000	      1.02286127	      6.29683179	   -169.55829275	      0.60596383	      1.06403914	      0.85623745	     19.06447556	      1.13690157	      0.58802107	     21.64565583	      0.37778796	     -0.56469878	      0.95395336	     -7.49999987	     25.95455006	    -12.70197311	      4.69850693	     29.25357172	      0.51057114	      5.93340813	      3.29244428	     -7.49999987	    -18.99085338	      7.28951393	      0.94519589	     15.25180672	     -2.86534166	     -0.78113883	     18.40981816	     83.20949714	     20.49754600	     -0.52967346	      4.13601896	     17.86190207	     84.45320991
     29.71666670	      1.20361129	      6.56006003	   -169.24309719	      0.60083562	      1.05492757	      0.85930099	     18.96456366	      1.27622009	      0.89382885	     22.38426121	      0.39067906	      0.86854144	      1.14446916	     -7.49999987	     26.56807396	    -13.04999874	      6.56928539	     31.22678210	      0.54501016	      7.98747582	      2.93143123	     -7.49999987	    -18.98406782	      7.56612473	      0.83611780	     15.29652519	     -2.54826639	     -0.85306507	     18.80578849	     82.30729173	     20.29820530	     -0.45747451	      4.22325200	     18.23290700	     83.44926015
     29.73333330	      1.57410641	      7.00678388	   -168.75001805	      0.59331935	      1.04528946	      0.86409584	     19.29174102	      1.28555059	      0.59059526	     23.79072081	      0.41522641	      3.36494761	      2.31590467	     -7.49999987	     27.51696779	    -13.21114567	      8.71320407	     33.45676048	      0.58393063	     10.60658269	      2.35897452	     -7.49999987	    -18.41415930	      8.21870533	      0.31865102	     15.33074983	     -2.32290892	     -0.64243474	     18.86661394	     82.17158045	     20.02954239	     -0.31146215	      4.44691537	     18.14439960	     83.14254727
     29.75000000	      2.14998300	      7.46573037	   -168.51225638	      0.58583302	      1.03972596	      0.86860092	     19.83369413	      1.20311043	      0.33746142	     25.38725157	      0.44309113	      5.96096593	      3.76424633	     -7.49999987	     28.37060567	    -13.22370167	     10.61091201	     35.32895232	      0.61660654	     12.45160542	      1.31046758	     -7.49999987	    -17.40753628	      8.93252245	     -0.22527302	     15.12215706	     -2.32180012	     -0.24538644	     19.17913754	     82.42958572	     19.38090851	     -0.29652409	      4.49167320	     18.38476300	     83.14513210
     29.76666670	      2.69361610	      7.84162498	   -168.51673756	      0.57982600	      1.03586165	      0.87213813	     20.45017553	      1.01547095	      0.16679851	     27.24789216	      0.47556543	      7.87628987	      5.15596561	     -7.49999987	     28.89081109	    -13.17215778	     12.02398068	     36.94323847	      0.64478115	     13.61963599	      0.17941904	     -7.49999987	    -16.45070289	      9.62114070	     -0.68752417	     14.98554372	     -2.39823929	      0.18241114	     19.44606123	     82.68259928	     18.67858960	     -0.32503593	      4.21158526	     18.80490380	     83.03265757
     29.78333330	      3.48250052	      8.19280935	   -168.66416657	      0.57421132	      1.03011865	      0.87402865	     21.91259574	      0.70794494	      0.22664479	     30.10390094	      0.52541219	      9.75683794	      6.68912610	     -7.49999987	     29.89578902	    -13.03132194	     13.32132522	     39.25983690	      0.68521342	     15.28117166	     -1.03925176	     -7.49999987	    -15.43793786	     10.21331414	     -1.01753137	     14.86140911	     -2.55111648	      0.58263268	     19.83452379	     82.93216593	     18.01903482	     -0.37612860	      3.64131793	     19.49637670	     82.84595357
     29.80000000	      4.46249952	      8.34561379	   -168.76833764	      0.56864963	      1.02299610	      0.87387121	     23.84153080	      0.18684015	      0.51196212	     33.58800714	      0.58622131	     11.51189775	      8.48956171	     -7.49999987	     31.26039662	    -12.60905976	     14.67599229	     42.29193718	      0.73813355	     17.74261769	     -2.42312217	     -7.49999987	    -14.25288889	     10.35565931	     -1.33976453	     14.62962759	     -2.62215183	      0.93979567	     20.31489926	     83.16815953	     17.40594761	     -0.48936028	      2.79160568	     20.20260372	     82.59926582
     29.81666670	      5.16053669	      8.27037699	   -168.83136053	      0.56318765	      1.01814962	      0.87262273	     25.24727795	     -0.38402811	      0.96090129	     36.91367971	      0.64426525	     12.52066829	     10.48404827	     -7.49999987	     32.10516251	    -12.12602701	     15.80390476	     45.30098798	      0.79065139	     20.27216587	     -3.84887754	     -7.49999987	    -13.25881841	     10.03057156	     -1.49329622	     14.35483985	     -2.58732058	      1.19756354	     20.66436893	     83.41728626	     16.93034811	     -0.61712573	      1.92512578	     20.61208609	     82.44476420
     29.83333330	      5.35096271	      8.07795793	   -168.92730216	      0.55634542	      1.01864397	      0.87138447	     25.52290572	     -0.76173061	      1.51558878	     39.44665480	      0.68847401	     11.13581597	     12.09896007	     -7.49999987	     31.81700744	    -11.84155948	     16.60000825	     47.48542190	      0.82877696	     21.19514041	     -5.44485417	     -7.49999987	    -12.52524603	      9.44094995	     -1.54705067	     14.00834940	     -2.44259221	      1.38409982	     20.72524189	     83.65128388	     16.48807816	     -0.77344486	      0.90595124	     20.58595497	     82.28094231
     29.85000000	      4.96183684	      8.00650162	   -169.21603099	      0.54800514	      1.02304071	      0.86991245	     24.96366996	     -0.63145292	      2.29404983	     41.64887503	      0.72691000	      8.63755382	     12.54089089	     -7.49999987	     30.52474808	    -12.04606963	     17.06452581	     49.05884792	      0.85623842	     20.45677671	     -6.86985705	     -7.49999987	    -12.29462553	      9.01480572	     -1.32597079	     13.68350281	     -2.26250615	      1.47693674	     20.64605190	     83.71877333	     16.05318369	     -1.00613902	      0.29956573	     20.33299942	     82.13071266
     29.86666670	      3.94637581	      7.86411330	   -169.48890398	      0.53829034	      1.02973533	      0.86801017	     23.47364201	     -0.25766856	      3.23455410	     43.38701578	      0.75724628	      4.80967084	     12.27735691	     -7.49999987	     28.36764294	    -12.32736748	     17.46342253	     50.36318998	      0.87900349	     18.39230970	     -8.32732717	     -7.49999987	    -12.70121285	      8.54127496	     -1.03913231	     13.47226518	     -2.14968009	      1.91447081	     20.48813041	     83.65019573	     15.72012427	     -1.22363275	     -1.01045537	     19.79641117	     81.60855721
     29.88333330	      3.41841891	      7.84623381	   -169.93038091	      0.52776858	      1.03344995	      0.86619785	     22.57238629	      0.30752362	      4.36577365	     45.05072434	      0.78628347	      0.64802074	     11.92662915	     -7.49999987	     26.74526221	    -12.60408078	     17.74285536	     51.71741682	      0.90263920	     15.49620173	     -9.49868002	     -7.49999987	    -12.45827418	      8.16970708	     -0.71106520	     13.21956876	     -2.11295709	      1.86229146	     20.44947026	     83.61115804	     15.03081651	     -1.66242863	     -1.08513902	     19.46355933	     81.56257659
     29.90000000	      2.16565461	      7.77536344	   -170.35823379	      0.51760212	      1.03357844	      0.86517245	     21.12120083	      1.14587907	      5.75617377	     46.85016001	      0.81768955	     -3.11017737	      9.27965204	     -7.49999987	     24.56324741	    -12.75938823	     18.09728113	     53.35032568	      0.93113884	     12.34037398	    -11.60284719	     -7.49999987	    -13.16435529	      7.85500257	      0.28617961	     13.19858103	     -2.36304444	      1.76928854	     20.27737573	     83.62221492	     14.72538943	     -1.80706402	     -1.10390589	     18.93377782	     81.53548905
     29.91666670	      0.87937924	      7.88875822	   -170.87993546	      0.50790298	      1.03061664	      0.86521306	     19.93502774	      2.07926870	      6.80984510	     48.81057832	      0.85190530	     -6.20022663	      7.11868596	     -7.49999987	     22.77324083	    -12.88787670	     18.34787533	     55.36151416	      0.96624070	     10.52640355	    -12.95209970	     -7.49999987	    -13.92713250	      7.94205387	      1.37327692	     13.22939578	     -2.87491476	      1.60144267	     20.46996982	     83.61661888	     14.31771272	     -1.91050407	     -0.89550113	     18.50920540	     81.54659868
